<?xml version="1.0" encoding="UTF-8" standalone="no"?>
<!-- Created with Inkscape (http://www.inkscape.org/) -->

<svg
   width="500"
   height="500"
   viewBox="0 0 500 500"
   version="1.1"
   id="svg1"
   xml:space="preserve"
   inkscape:export-filename="Music Note Icon.webp"
   inkscape:export-xdpi="96"
   inkscape:export-ydpi="96"
   inkscape:version="1.3.2 (091e20e, 2023-11-25)"
   sodipodi:docname="Music Note Icon.svg"
   xmlns:inkscape="http://www.inkscape.org/namespaces/inkscape"
   xmlns:sodipodi="http://sodipodi.sourceforge.net/DTD/sodipodi-0.dtd"
   xmlns="http://www.w3.org/2000/svg"
   xmlns:svg="http://www.w3.org/2000/svg"><sodipodi:namedview
     id="namedview1"
     pagecolor="#ffffff"
     bordercolor="#000000"
     borderopacity="0.25"
     inkscape:showpageshadow="2"
     inkscape:pageopacity="0.0"
     inkscape:pagecheckerboard="0"
     inkscape:deskcolor="#d1d1d1"
     inkscape:document-units="px"
     inkscape:zoom="1.3916986"
     inkscape:cx="192.9297"
     inkscape:cy="257.23961"
     inkscape:window-width="1728"
     inkscape:window-height="1051"
     inkscape:window-x="0"
     inkscape:window-y="38"
     inkscape:window-maximized="1"
     inkscape:current-layer="layer1" /><defs
     id="defs1"><rect
       x="87.891385"
       y="85.76498"
       width="389.84082"
       height="391.25842"
       id="rect7" /></defs><g
     inkscape:groupmode="layer"
     id="layer1"
     inkscape:label="BG"><rect
       style="fill:#1155cc;fill-opacity:1"
       id="rect6"
       width="520"
       height="520"
       x="-10"
       y="-10" /></g><path
     d="m 172.71781,423.69672 c -0.87053,-0.0633 -2.72243,-0.20576 -4.11529,-0.30074 -2.40588,-0.18992 -4.65348,-0.49066 -7.43922,-1.01299 -0.69644,-0.12662 -1.89938,-0.36405 -2.69077,-0.5065 -1.88354,-0.33239 -4.5585,-1.01301 -4.6693,-1.15546 -0.0475,-0.0792 -0.69644,-0.31655 -1.44036,-0.55397 -1.66195,-0.5065 -3.2131,-1.10798 -3.498,-1.34539 -0.11079,-0.095 -0.9497,-0.53816 -1.86773,-0.98134 -0.91803,-0.4432 -1.6936,-0.87056 -1.74108,-0.94969 -0.0475,-0.0633 -0.66479,-0.50649 -1.37705,-0.96551 -0.71226,-0.45901 -1.85189,-1.28209 -2.5325,-1.80441 -2.26342,-1.77275 -6.23628,-5.95137 -7.89824,-8.30976 -0.33238,-0.47484 -0.82304,-1.13962 -1.10794,-1.48784 -0.2691,-0.34822 -0.75975,-1.1238 -1.09215,-1.74109 -0.34823,-0.60147 -0.66479,-1.13962 -0.72808,-1.18711 -0.1583,-0.11078 -0.8389,-1.5195 -1.31374,-2.67494 -0.22159,-0.56982 -0.47485,-1.06048 -0.55398,-1.10798 -0.31657,-0.22159 -1.13963,-3.16561 -1.53533,-5.63479 -0.17412,-0.9497 -0.34823,-1.75693 -0.41153,-1.78858 -0.17411,-0.0792 -0.15829,-6.33124 0.0157,-6.90106 0.0791,-0.26907 0.23743,-1.17127 0.33239,-1.99434 0.30074,-2.40588 1.28208,-6.90105 1.56699,-7.12264 0.0475,-0.0475 0.47483,-1.23459 0.93385,-2.6433 0.47485,-1.4087 0.90221,-2.57998 0.98135,-2.61164 0.0633,-0.0317 0.47483,-0.9022 0.93385,-1.93103 0.44319,-1.04464 0.87054,-1.93103 0.94968,-1.97851 0.0792,-0.0475 0.45902,-0.74392 0.85471,-1.53532 0.39572,-0.79142 0.8864,-1.64613 1.10799,-1.89937 0.20576,-0.25326 0.5698,-0.8389 0.82306,-1.29791 0.25324,-0.45901 0.66477,-1.09214 0.94968,-1.42452 0.26908,-0.31657 0.75976,-0.98135 1.10796,-1.4562 2.32674,-3.3239 8.97454,-10.03502 12.66249,-12.83659 0.26908,-0.20577 0.75975,-0.61729 1.10797,-0.91803 0.36405,-0.31657 1.13963,-0.91803 1.72526,-1.36121 2.43753,-1.77276 3.84623,-2.78574 4.51101,-3.19728 0.3957,-0.23742 1.13963,-0.74392 1.66196,-1.10797 0.53815,-0.37987 1.53531,-0.96552 2.23176,-1.32956 0.69644,-0.36405 1.4087,-0.77558 1.58281,-0.93385 0.17411,-0.15829 1.02883,-0.6173 1.89937,-1.013 0.87054,-0.3957 1.59864,-0.77558 1.6303,-0.85472 0.0317,-0.095 1.09214,-0.56981 2.37421,-1.07632 1.28207,-0.50649 2.34256,-0.98134 2.37421,-1.04465 0.0317,-0.0633 1.20293,-0.49066 2.61164,-0.94968 1.40871,-0.4432 2.59582,-0.87056 2.64329,-0.93387 0.095,-0.12662 3.41888,-1.01299 5.61897,-1.48784 0.69645,-0.15827 1.29792,-0.33239 1.3454,-0.3957 0.0792,-0.12663 3.62464,-0.77558 5.93554,-1.10796 4.78009,-0.66478 10.95305,-1.10798 16.46122,-1.15546 2.69078,-0.0157 8.92706,0.30073 11.63367,0.58565 4.66929,0.5065 9.60766,1.34538 9.81341,1.66195 0.0475,0.095 0.44319,0.23741 0.87056,0.33239 1.23458,0.26907 4.40021,1.26625 4.76426,1.50366 0.1741,0.11079 1.25041,0.56982 2.35839,1.013 1.12379,0.4432 2.0893,0.87055 2.13678,0.93386 0.0475,0.0791 0.90221,0.53816 1.89938,1.02882 2.02598,1.01301 4.65346,2.51668 5.14414,2.94403 0.3957,0.34822 1.77274,1.28208 1.88353,1.28208 0.0475,0 0.11079,-58.67478 0.12663,-130.3761 l 0.0475,-130.391908 5.84057,-0.04745 c 5.1283,-0.03166 5.87223,0 6.12547,0.205767 0.14246,0.142453 0.66479,1.282073 1.15545,2.5325 0.50651,1.250415 0.96552,2.295076 1.02883,2.326733 0.0792,0.03166 0.39571,0.728085 0.71227,1.551143 0.75974,1.915211 1.04465,2.548336 1.2979,2.849063 0.11077,0.126629 0.45901,0.823057 0.75975,1.551154 0.31656,0.712264 0.75974,1.614471 1.013,1.978513 0.23741,0.364044 0.71227,1.202936 1.06049,1.851884 0.33238,0.64896 0.74392,1.39288 0.93384,1.646127 0.18994,0.269083 0.64896,1.013003 1.04466,1.693608 0.39571,0.664783 0.91804,1.48784 1.15546,1.820238 0.23741,0.348207 0.75974,1.123785 1.17128,1.725253 1.56698,2.374225 3.27641,4.764265 4.13114,5.777265 0.25324,0.30073 0.83888,1.04466 1.28206,1.64613 1.96269,2.5958 4.82757,5.71394 9.84509,10.6998 5.99884,5.96718 7.26509,7.17013 10.9847,10.27243 0.96551,0.80724 2.08931,1.75692 2.51667,2.12097 0.42736,0.36405 0.9022,0.74392 1.06048,0.82307 0.14246,0.095 0.63313,0.47484 1.09215,0.87054 0.45901,0.3957 0.94969,0.77557 1.09214,0.85472 0.14245,0.0791 0.96551,0.68061 1.83606,1.34539 2.69077,2.02599 3.27641,2.45335 4.98585,3.65629 3.00733,2.12097 4.65346,3.29224 5.46069,3.90954 0.42735,0.33238 1.13963,0.85471 1.58281,1.15545 1.013,0.71228 5.98302,4.46353 7.45503,5.66646 3.33974,2.67496 6.22045,5.15997 9.05369,7.81908 8.64214,8.11982 9.70261,9.14864 12.23511,11.9344 1.80441,1.96268 2.26342,2.50083 2.88073,3.26059 0.33238,0.41152 0.6806,0.83888 0.7914,0.94967 0.34822,0.34822 3.18145,3.79876 3.87789,4.71679 1.10796,1.44035 1.74109,2.24759 2.42169,3.08647 0.94969,1.18711 1.94685,2.54832 2.78575,3.79875 0.3957,0.61729 0.9022,1.31374 1.10797,1.55115 0.20576,0.25326 0.66477,0.96551 1.01299,1.58282 0.36406,0.63313 0.79142,1.28208 0.93387,1.45619 0.15828,0.1741 0.61729,0.99716 1.04465,1.82022 0.41153,0.82307 0.83889,1.58281 0.94968,1.66195 0.095,0.095 0.4432,0.75975 0.77559,1.50367 0.31655,0.74392 0.88636,1.99434 1.26624,2.76991 0.36405,0.79142 0.82307,1.8519 1.01301,2.37423 0.20575,0.52232 0.60146,1.45618 0.88636,2.05766 0.28491,0.61728 0.83888,1.99433 1.20295,3.08646 0.36403,1.09215 0.72808,2.01018 0.79139,2.05767 0.14245,0.095 0.39571,0.82306 1.15546,3.3239 0.30072,0.99717 0.64894,2.04182 0.7914,2.29508 0.23742,0.47483 1.39287,5.04916 1.59865,6.37871 0.0633,0.36405 0.15828,0.66479 0.23741,0.66479 0.12663,0 0.18994,0.30073 0.55399,2.69077 1.28207,8.27811 1.47201,21.03556 0.45901,30.23168 -0.2849,2.67495 -0.8389,5.9039 -1.013,6.01469 -0.0634,0.0475 -0.31656,0.85472 -0.53815,1.82023 -0.53816,2.2001 -1.17129,4.32108 -1.34539,4.38438 -0.0633,0.0317 -0.49068,1.07632 -0.94969,2.34256 -0.45901,1.26624 -0.93385,2.37423 -1.02883,2.45335 -0.11077,0.095 -0.45901,0.80724 -0.7914,1.58282 -0.3324,0.79141 -0.82307,1.82023 -1.09213,2.29507 -0.28491,0.47485 -0.80723,1.55116 -1.18712,2.37421 -0.36403,0.82307 -0.7281,1.53535 -0.80723,1.58282 -0.0791,0.0475 -0.53815,0.87055 -1.01301,1.85188 -0.49066,0.96552 -0.94967,1.78858 -1.02882,1.82024 -0.0791,0.0159 -0.47484,0.69644 -0.88637,1.50367 -0.3957,0.79141 -0.79141,1.48785 -0.87054,1.55115 -0.095,0.0475 -0.52233,0.74392 -0.98134,1.55115 -0.4432,0.80724 -0.93387,1.58282 -1.07633,1.74111 -0.14245,0.15827 -0.5698,0.80722 -0.96551,1.44034 -1.86772,3.039 -5.84056,8.51553 -7.97736,11.01637 -0.49068,0.56981 -1.26625,1.48783 -1.72526,2.05765 -1.86772,2.24759 -12.85243,12.97905 -15.46407,15.10001 -0.30072,0.23742 -0.9022,0.77558 -1.34539,1.18712 -2.32671,2.15262 -5.69811,4.98585 -11.15881,9.33857 -0.56981,0.44319 -1.64612,1.18711 -2.91237,1.96269 -1.67777,1.04465 -3.64046,0.93385 -5.20744,-0.28491 -1.56698,-1.25042 -2.10513,-2.50083 -1.6936,-4.03616 0.15828,-0.56981 0.47484,-0.99718 1.72525,-2.21594 0.8389,-0.82306 2.2476,-2.04182 3.10231,-2.69078 0.87056,-0.64894 1.69361,-1.29789 1.82024,-1.44035 0.12661,-0.14246 0.63312,-0.56982 1.1238,-0.94969 4.6218,-3.60882 8.75292,-7.36007 14.16614,-12.8366 6.53702,-6.58448 9.75012,-10.28826 12.67832,-14.60933 0.58563,-0.87055 1.12379,-1.61447 1.1871,-1.6303 0.0791,-0.0317 0.42736,-0.56981 0.79141,-1.1871 0.34823,-0.63313 0.87054,-1.45619 1.15544,-1.8519 0.28491,-0.3957 0.71228,-1.10796 0.94969,-1.5828 0.23743,-0.47485 0.64896,-1.17129 0.88638,-1.53533 0.25326,-0.36405 0.79141,-1.31374 1.20293,-2.13679 0.39571,-0.80723 0.79141,-1.50368 0.85473,-1.55115 0.0791,-0.0475 0.34821,-0.58565 0.63313,-1.18711 0.26906,-0.6173 0.82305,-1.82023 1.25041,-2.69079 0.41154,-0.87054 0.99717,-2.29507 1.28207,-3.16561 0.30074,-0.87055 0.61731,-1.66196 0.71227,-1.77276 0.18994,-0.20576 0.96552,-2.8807 1.50367,-5.27075 0.20578,-0.82306 0.41154,-1.55115 0.49068,-1.59863 0.12661,-0.0791 0.75974,-3.18146 1.06047,-5.20746 1.17129,-8.08816 1.09215,-16.33461 -0.23742,-23.82129 -0.30072,-1.7411 -0.6806,-3.29226 -0.83889,-3.40305 -0.0475,-0.0475 -0.44318,-1.13962 -0.87054,-2.42169 -0.42736,-1.28209 -0.85472,-2.42171 -0.94969,-2.53251 -0.095,-0.11078 -0.49067,-0.87054 -0.85471,-1.6936 -0.37988,-0.82306 -0.91804,-1.85188 -1.20294,-2.29507 -0.2849,-0.42736 -0.79141,-1.28208 -1.10797,-1.89938 -0.33239,-0.60147 -0.72808,-1.25041 -0.88638,-1.42453 -0.14244,-0.1741 -0.5698,-0.80723 -0.93385,-1.42452 -0.36405,-0.60147 -0.79141,-1.26626 -0.94969,-1.44036 -0.17411,-0.18995 -0.5698,-0.75976 -0.88637,-1.26625 -0.33239,-0.50649 -0.79141,-1.17128 -1.04466,-1.48784 -0.25324,-0.30074 -1.23459,-1.59864 -2.18428,-2.89654 -4.90671,-6.58451 -9.90838,-11.57036 -17.26846,-17.15767 -1.17128,-0.88638 -2.48501,-1.88354 -2.91237,-2.21594 -0.44319,-0.33238 -1.18711,-0.87054 -1.66195,-1.1871 -0.49067,-0.3324 -1.63029,-1.13964 -2.54832,-1.78859 -0.91803,-0.66477 -2.05765,-1.45617 -2.5325,-1.77274 -0.47484,-0.30074 -1.04465,-0.7281 -1.26625,-0.91803 -0.22159,-0.18993 -0.99717,-0.7281 -1.74108,-1.18711 -0.74392,-0.45902 -1.37705,-0.88637 -1.42453,-0.94968 -0.0475,-0.0634 -0.68062,-0.49068 -1.42454,-0.94968 -0.72808,-0.45901 -1.42453,-0.93387 -1.55115,-1.04466 -0.11079,-0.12664 -0.72809,-0.52233 -1.34539,-0.88637 -0.63313,-0.36406 -1.2979,-0.79142 -1.48784,-0.96553 -0.37988,-0.34821 -0.56982,-0.459 -1.7411,-1.09212 -0.44318,-0.23743 -0.99716,-0.60148 -1.25043,-0.80724 -0.25324,-0.20577 -1.04464,-0.71226 -1.77274,-1.13964 -0.71226,-0.41152 -1.39286,-0.83887 -1.50365,-0.93385 -0.1108,-0.11078 -0.7281,-0.50649 -1.37705,-0.88637 -0.64897,-0.37988 -1.47202,-0.87055 -1.82024,-1.10796 -0.34822,-0.23742 -1.20294,-0.74393 -1.89938,-1.1238 -0.69642,-0.36405 -1.39286,-0.79141 -1.53532,-0.91803 -0.14245,-0.14245 -0.90221,-0.56981 -1.66195,-0.96553 -0.75975,-0.37986 -1.48784,-0.79139 -1.59863,-0.90219 -0.11079,-0.11077 -0.93387,-0.56981 -1.82024,-1.013 -0.88638,-0.44317 -1.72526,-0.90219 -1.85189,-1.01299 -0.23742,-0.18995 -1.48784,-0.83889 -5.4607,-2.80158 -1.04464,-0.52234 -2.01016,-1.04465 -2.13678,-1.15546 -0.12663,-0.11078 -1.013,-0.53815 -1.97851,-0.94968 -0.94969,-0.42736 -1.80442,-0.83888 -1.89938,-0.94968 -0.0791,-0.095 -0.98135,-0.52233 -1.97851,-0.94969 -0.99718,-0.41153 -1.89938,-0.83889 -2.01017,-0.94969 -0.11079,-0.11078 -1.04467,-0.53814 -2.10515,-0.9655 -1.04465,-0.41154 -1.89937,-0.80724 -1.89937,-0.87056 0,-0.0633 -0.58563,-0.34822 -1.2979,-0.6173 -2.62747,-1.01299 -3.37139,-1.31373 -3.45052,-1.44034 -0.0475,-0.0633 -1.07631,-0.49068 -2.29508,-0.93386 -1.21876,-0.45902 -2.3584,-0.9022 -2.5325,-1.013 -0.17411,-0.095 -0.49068,-0.26908 -0.72809,-0.36406 l -0.3957,-0.17411 0.0633,109.41968 c 0.0634,83.44578 0.0317,109.86288 -0.11078,111.22409 -0.26907,2.61164 -1.21876,6.6953 -1.61446,6.93272 -0.0633,0.0475 -0.41153,0.87054 -0.75975,1.82023 -0.90221,2.48503 -1.01301,2.76993 -1.17129,2.76993 -0.0633,0 -0.36403,0.52231 -0.64895,1.15543 -0.49066,1.06049 -1.69359,3.00734 -2.73825,4.43189 -2.34256,3.2131 -3.19729,4.30524 -4.62181,5.9672 -2.39005,2.78574 -4.62182,5.15995 -6.50536,6.88522 -2.02599,1.86771 -2.4217,2.21592 -3.86205,3.33972 -0.75975,0.60146 -1.89937,1.50367 -2.51668,1.99434 -1.77274,1.42453 -6.06215,4.3369 -8.02484,5.44487 -0.56981,0.31657 -1.34539,0.7914 -1.74109,1.04465 -0.3957,0.25326 -1.53533,0.85473 -2.5325,1.34538 -0.99717,0.49068 -1.86771,0.94969 -1.9152,1.02884 -0.0475,0.0791 -0.96551,0.49067 -2.05765,0.93386 -1.07632,0.44319 -1.99434,0.85471 -2.04183,0.93385 -0.0475,0.0791 -1.01299,0.47485 -2.13679,0.87055 -1.12379,0.3957 -2.08931,0.79141 -2.13679,0.85472 -0.0791,0.12663 -2.01017,0.7914 -4.51102,1.51949 -0.77557,0.23742 -1.47202,0.49068 -1.51949,0.56981 -0.095,0.15829 -3.64047,1.09214 -5.6823,1.50368 -0.74392,0.14245 -1.37704,0.31656 -1.42453,0.3957 -0.12662,0.18995 -3.8937,0.7281 -7.17012,1.013 -3.05483,0.25325 -15.08419,0.30073 -18.0757,0.0633 z"
     id="path1"
     style="display:inline;opacity:1;fill:#ffffff;stroke:none;stroke-width:0;stroke-dasharray:none;stroke-opacity:1"
     inkscape:label="1/8th Note" /></svg>
